# xmcd
#
# Track frame offsets: 
#        150
#        12019
#        22843
#        38686
#        63974
#        76734
#        83253
#        95904
#        107736
#        118691
#        133465
#        155722
#        165002
#        176623
#
# Disc length: 3143 seconds
#
# Revision: 0
# Processed by: cddbd v1.5.2PL0 Copyright (c) Steve Scherf et al.
# Submitted via: ExactAudioCopy v0.99pb4
#
DISCID=9c0c450e
DTITLE=Various Artist - Country pisnicky poprve
DYEAR=2003
DGENRE=Country
TTITLE0=Stare sedlo - Rosa na kolejich
TTITLE1=Tramp - Krasna Isabel
TTITLE2=Modry kruh - Sbohem kapitane
TTITLE3=P. Klouda - Je na zapad cesta dlouha
TTITLE4=Tramp - More huci
TTITLE5=Tramp - Hop tam s jednou
TTITLE6=Modry kruh - Starej serif
TTITLE7=Milos Turek Zuzanka - Country bus
TTITLE8=Tramp - Holaliahou
TTITLE9=Tramp - Parta z rance Y
TTITLE10=P. Klouda - Opoustim svuj rodny kraj
TTITLE11=Tramp - Kotva
TTITLE12=Severaci - Stado koni
TTITLE13=Stare sedlo - smes
EXTD=
EXTT0=
EXTT1=
EXTT2=
EXTT3=
EXTT4=
EXTT5=
EXTT6=
EXTT7=
EXTT8=
EXTT9=
EXTT10=
EXTT11=
EXTT12=
EXTT13=
PLAYORDER=
